<svg width="68" height="68" viewBox="0 0 68 68" fill="none" xmlns="http://www.w3.org/2000/svg">
<path d="M34.0001 0.666656C52.4101 0.666656 67.3334 15.59 67.3334 34C67.3334 52.41 52.4101 67.3333 34.0001 67.3333C15.5901 67.3333 0.666748 52.41 0.666748 34C0.666748 15.59 15.5901 0.666656 34.0001 0.666656ZM24.1768 22.6167C24.0601 22.8494 23.9996 23.1063 24.0001 23.3667V44.64C24.0001 44.9242 24.0728 45.2037 24.2112 45.4519C24.3497 45.7001 24.5493 45.9088 24.7912 46.0581C25.033 46.2074 25.309 46.2924 25.5929 46.305C25.8769 46.3176 26.1593 46.2573 26.4134 46.13L47.6868 35.4967C47.9641 35.3584 48.1974 35.1456 48.3605 34.8821C48.5236 34.6186 48.61 34.3149 48.61 34.005C48.61 33.6951 48.5236 33.3914 48.3605 33.1279C48.1974 32.8644 47.9641 32.6516 47.6868 32.5133L26.4134 21.8733C26.0182 21.6753 25.5606 21.6424 25.1411 21.7818C24.7217 21.9212 24.3748 22.2215 24.1768 22.6167Z" fill="#59A4F2"/>
</svg>
