<svg width="60" height="30" viewBox="0 0 60 30" fill="none" xmlns="http://www.w3.org/2000/svg">
<path d="M60 28H52.9692C53.96 27.2715 54.647 26.2036 54.8989 25H59C59.5522 25 60 24.5522 60 24V15C60 14.9067 59.9868 14.8145 59.9609 14.7251L55.9609 0.725098C55.8384 0.295898 55.4463 0 55 0H3C2.44775 0 2 0.447754 2 1V24C2 24.5522 2.44775 25 3 25H5.1001C5.35205 26.2036 6.03906 27.2715 7.02979 28H0V30H60V28ZM16 24C16 22.3433 17.3433 21 19 21C20.6567 21 22 22.3433 22 24C22 25.6567 20.6567 27 19 27C17.3433 27 16 25.6567 16 24ZM23.8999 25H45.1001C45.3521 26.2036 46.0391 27.2715 47.0298 28H21.9692C22.96 27.272 23.6475 26.2036 23.8999 25ZM34 18H39V23H34V18ZM32 23H27V18H32V23ZM50 27C48.3433 27 47 25.6567 47 24C47 22.3433 48.3433 21 50 21C51.6567 21 53 22.3433 53 24C53 25.6567 51.6567 27 50 27ZM57.0269 11.7329L57.6738 14H55.7642L53.3091 5H55.1001L57.0269 11.7329ZM5.1001 23H4V2H54.2461L54.5308 3H52C51.6885 3 51.3945 3.14502 51.2051 3.39307C51.0161 3.64062 50.9531 3.9624 51.0352 4.26318L54.0352 15.2632C54.1538 15.6982 54.5488 16 55 16H58V17H57V19H58V23H54.8999C54.4268 20.6694 52.3779 18.9951 50 18.9951C47.6221 18.9951 45.5732 20.6694 45.1001 23H41V17C41 16.4478 40.5522 16 40 16H26C25.4478 16 25 16.4478 25 17V23H23.8999C23.4751 20.8921 21.7466 19.2939 19.6118 19.0347C17.4771 18.7759 15.4165 19.9146 14.5 21.8599C13.5835 19.9146 11.5229 18.7759 9.38818 19.0347C7.25342 19.2939 5.5249 20.8921 5.1001 23ZM10 21C11.6567 21 13 22.3433 13 24C13 25.6567 11.6567 27 10 27C8.34326 27 7 25.6567 7 24C7 22.3433 8.34326 21 10 21ZM14.5 26.1401C14.8516 26.8755 15.377 27.5137 16.0308 28H12.9692C13.623 27.5137 14.1484 26.8755 14.5 26.1401Z" fill="white"/>
</svg>
