<svg width="40" height="40" viewBox="0 0 40 40" fill="none" xmlns="http://www.w3.org/2000/svg">
<path d="M29.3001 28.4625C28.1223 30.209 27.4953 32.2685 27.5001 34.375V38.125H12.5001V34.375C12.5048 32.2685 11.8778 30.209 10.7001 28.4625C11.2736 28.238 11.8842 28.1235 12.5001 28.125H16.2501L20.0001 35L23.7501 28.125H27.5001C28.1159 28.1235 28.7266 28.238 29.3001 28.4625Z" fill="#59A4F2"/>
<path d="M9.375 11.6813C7.05 11.2375 5.625 10.6438 5.625 9.99998C5.625 9.27498 7.4125 8.61873 10.2562 8.16248C11.2812 8.85623 15.25 9.37498 20 9.37498C20.575 9.37498 21.1375 9.36873 21.6875 9.34998C21.7 9.60623 21.6875 9.88122 21.8438 10.0313C22.0688 10.2625 22.5625 10.125 22.8687 10.25C23.1625 10.375 23.4125 10.825 23.75 10.825C24.0875 10.825 24.3375 10.375 24.6313 10.25C24.9375 10.125 25.4312 10.2625 25.6562 10.0313C25.8687 9.82497 25.7687 9.38748 25.8562 9.08123C27.7812 8.86248 29.1938 8.53748 29.7437 8.16248C32.5875 8.61873 34.375 9.27498 34.375 9.99998C34.375 10.6438 32.95 11.2375 30.625 11.6813C29.8813 11.825 29.0438 11.9563 28.125 12.0625C25.4274 12.3647 22.7145 12.5108 20 12.5C17.2855 12.5108 14.5726 12.3647 11.875 12.0625C10.9563 11.9563 10.1188 11.825 9.375 11.6813Z" fill="#59A4F2"/>
<path d="M29.2062 7.20002H29.2125C29.3903 7.50973 29.5509 7.82895 29.6937 8.15627C29.7125 8.15627 29.725 8.16252 29.7437 8.16252C29.1937 8.53752 27.7812 8.86252 25.8562 9.08127C25.8565 9.05514 25.8629 9.02944 25.875 9.00627C26 8.71252 26.45 8.46252 26.45 8.12502C26.45 7.78752 26 7.53752 25.875 7.24377C25.75 6.93752 25.8875 6.44377 25.6562 6.21876C25.425 5.99376 24.9375 6.12502 24.6312 6.00002C24.3375 5.87502 24.0875 5.42502 23.75 5.42502C23.4125 5.42502 23.1625 5.87502 22.8687 6.00002C22.5625 6.12502 22.0687 5.98751 21.8437 6.21876C21.6187 6.45002 21.75 6.93752 21.625 7.24377C21.5 7.53752 21.05 7.78752 21.05 8.12502C21.05 8.46252 21.5 8.71252 21.625 9.00627C21.666 9.11624 21.6872 9.23263 21.6875 9.35002C21.1375 9.36877 20.575 9.37502 20 9.37502C15.25 9.37502 11.2812 8.85627 10.2562 8.16252C10.275 8.16252 10.2875 8.15627 10.3062 8.15627C11.0096 6.585 12.0845 5.20827 13.4381 4.14464C14.7917 3.081 16.3836 2.36234 18.0767 2.05054C19.7697 1.73874 21.5132 1.84315 23.157 2.35478C24.8007 2.86641 26.2955 3.76993 27.5125 4.98751C28.1737 5.6457 28.7434 6.38988 29.2062 7.20002Z" fill="#59A4F2"/>
<path d="M33.75 24.0625C33.75 26.1125 32.7125 28.0063 30.9688 29.525C30.4893 29.0626 29.9219 28.7013 29.3 28.4625C28.7266 28.238 28.1159 28.1235 27.5 28.125H23.75L23.475 24.85V24.8438C24.8665 24.1864 26.0425 23.1469 26.8658 21.8467C27.6891 20.5465 28.1258 19.039 28.125 17.5V12.0625C29.0438 11.9562 29.8813 11.825 30.625 11.6813V18.3125C32.575 19.875 33.75 21.8813 33.75 24.0625Z" fill="#59A4F2"/>
<path d="M16.525 24.8438V24.85L16.25 28.125H12.5C11.6494 28.1258 10.8132 28.3438 10.0705 28.7584C9.32784 29.1729 8.70334 29.7702 8.2562 30.4938C7.76107 29.9998 7.38234 29.4017 7.1476 28.7429C6.91287 28.0841 6.82803 27.3812 6.89928 26.6855C6.97053 25.9897 7.19607 25.3186 7.55947 24.7211C7.92287 24.1235 8.41498 23.6146 8.99995 23.2312C8.43028 22.482 8.12282 21.5662 8.12495 20.625C8.12205 19.4812 8.57136 18.3827 9.37495 17.5688V11.6813C10.1187 11.825 10.9562 11.9562 11.875 12.0625V17.5C11.8763 19.0385 12.314 20.5451 13.137 21.8449C13.9601 23.1448 15.1348 24.1846 16.525 24.8438Z" fill="#59A4F2"/>
<path d="M23.75 15V16.25C23.75 16.4158 23.6842 16.5747 23.5669 16.6919C23.4497 16.8092 23.2908 16.875 23.125 16.875C22.9592 16.875 22.8003 16.8092 22.6831 16.6919C22.5658 16.5747 22.5 16.4158 22.5 16.25V15C22.5 14.8342 22.5658 14.6753 22.6831 14.5581C22.8003 14.4408 22.9592 14.375 23.125 14.375C23.2908 14.375 23.4497 14.4408 23.5669 14.5581C23.6842 14.6753 23.75 14.8342 23.75 15Z" fill="white"/>
<path d="M17.5 15V16.25C17.5 16.4158 17.4342 16.5747 17.3169 16.6919C17.1997 16.8092 17.0408 16.875 16.875 16.875C16.7092 16.875 16.5503 16.8092 16.4331 16.6919C16.3158 16.5747 16.25 16.4158 16.25 16.25V15C16.25 14.8342 16.3158 14.6753 16.4331 14.5581C16.5503 14.4408 16.7092 14.375 16.875 14.375C17.0408 14.375 17.1997 14.4408 17.3169 14.5581C17.4342 14.6753 17.5 14.8342 17.5 15Z" fill="white"/>
<path d="M16.875 14.375C16.7092 14.375 16.5503 14.4408 16.4331 14.5581C16.3158 14.6753 16.25 14.8342 16.25 15V16.25C16.25 16.4158 16.3158 16.5747 16.4331 16.6919C16.5503 16.8092 16.7092 16.875 16.875 16.875C17.0408 16.875 17.1997 16.8092 17.3169 16.6919C17.4342 16.5747 17.5 16.4158 17.5 16.25V15C17.5 14.8342 17.4342 14.6753 17.3169 14.5581C17.1997 14.4408 17.0408 14.375 16.875 14.375Z" fill="white"/>
<path d="M23.125 14.375C22.9592 14.375 22.8003 14.4408 22.6831 14.5581C22.5658 14.6753 22.5 14.8342 22.5 15V16.25C22.5 16.4158 22.5658 16.5747 22.6831 16.6919C22.8003 16.8092 22.9592 16.875 23.125 16.875C23.2908 16.875 23.4497 16.8092 23.5669 16.6919C23.6842 16.5747 23.75 16.4158 23.75 16.25V15C23.75 14.8342 23.6842 14.6753 23.5669 14.5581C23.4497 14.4408 23.2908 14.375 23.125 14.375Z" fill="white"/>
<path d="M35 10C35 9.2575 34.4375 8.3175 30.1213 7.59063C29.1995 5.6902 27.7614 4.08763 25.9715 2.96631C24.1816 1.84498 22.1122 1.25019 20 1.25C17.8884 1.25179 15.8199 1.84726 14.0306 2.96842C12.2413 4.08959 10.8032 5.69127 9.88062 7.59063C5.5625 8.3175 5 9.25688 5 10C5 11.0456 6.595 11.7413 8.75 12.2044V17.3225C7.9415 18.2322 7.4965 19.4079 7.5 20.625C7.49732 21.4873 7.72241 22.3351 8.1525 23.0825C7.07155 23.9904 6.39511 25.2901 6.27171 26.6963C6.14832 28.1026 6.58806 29.5003 7.49438 30.5825C7.08955 31.369 6.87727 32.2404 6.875 33.125V38.125C6.875 38.2908 6.94085 38.4497 7.05806 38.5669C7.17527 38.6842 7.33424 38.75 7.5 38.75H32.5C32.6658 38.75 32.8247 38.6842 32.9419 38.5669C33.0592 38.4497 33.125 38.2908 33.125 38.125V33.125C33.1261 31.8224 32.673 30.5602 31.8438 29.5556C32.6168 28.8601 33.24 28.0143 33.6752 27.0698C34.1105 26.1254 34.3486 25.1021 34.375 24.0625C34.375 21.8594 33.2681 19.7231 31.25 18.0175V12.205C33.405 11.7413 35 11.0456 35 10ZM20 2.5C21.8282 2.49616 23.622 2.99618 25.1846 3.94516C26.7471 4.89415 28.018 6.25538 28.8575 7.87938C28.2664 8.06143 27.6621 8.19767 27.05 8.28687C27.0629 8.23373 27.0713 8.17957 27.075 8.125C27.047 7.75464 26.8746 7.4101 26.595 7.16563C26.5437 7.11125 26.47 7.02937 26.455 7.01C26.4416 6.93111 26.4347 6.85126 26.4344 6.77125C26.46 6.40697 26.3402 6.04738 26.1012 5.77125C25.8258 5.53324 25.4676 5.41353 25.1044 5.43813C25.0244 5.435 24.9044 5.43 24.8787 5.42375C24.8188 5.37918 24.7622 5.3303 24.7094 5.2775C24.5977 5.12848 24.4529 5.00751 24.2864 4.9242C24.1199 4.84088 23.9362 4.7975 23.75 4.7975C23.5638 4.7975 23.3801 4.84088 23.2136 4.9242C23.0471 5.00751 22.9023 5.12848 22.7906 5.2775C22.7362 5.32875 22.6544 5.4025 22.635 5.4175C22.5561 5.43086 22.4763 5.43776 22.3962 5.43813C22.032 5.41248 21.6724 5.53227 21.3963 5.77125C21.1575 6.04748 21.0377 6.407 21.0631 6.77125C21.0631 6.85125 21.055 6.97125 21.0488 6.99687C21.0042 7.05681 20.9553 7.11342 20.9025 7.16625C20.624 7.411 20.4525 7.75523 20.425 8.125C20.4285 8.34579 20.4987 8.56037 20.6262 8.74062C20.4162 8.74062 20.2131 8.75 20.0012 8.75C15.7012 8.75 12.485 8.33562 11.1394 7.88125C11.9841 6.26066 13.2565 4.90235 14.8185 3.9537C16.3805 3.00506 18.1725 2.50231 20 2.5ZM25.7787 8.125C25.7475 8.16062 25.7113 8.19938 25.6825 8.23C25.5227 8.38378 25.3924 8.56553 25.2981 8.76625C25.2211 8.97917 25.183 9.20421 25.1856 9.43062C25.1856 9.4675 25.1856 9.51312 25.18 9.55562L25.055 9.56125C24.8284 9.55866 24.6031 9.59676 24.39 9.67375C24.1896 9.76822 24.008 9.89848 23.8544 10.0581C23.8237 10.0869 23.785 10.1206 23.7494 10.1544C23.7138 10.1231 23.675 10.0869 23.6444 10.0581C23.4906 9.89834 23.3088 9.76806 23.1081 9.67375C22.8952 9.59672 22.6702 9.55861 22.4438 9.56125L22.3187 9.55562C22.3187 9.51312 22.3144 9.46812 22.3131 9.43062C22.3157 9.20401 22.2776 8.97877 22.2006 8.76562C22.1062 8.56519 21.9759 8.38367 21.8162 8.23C21.7875 8.19938 21.7537 8.16062 21.72 8.125C21.7512 8.08938 21.7875 8.05062 21.8162 8.02C21.976 7.86622 22.1063 7.68447 22.2006 7.48375C22.2777 7.27083 22.3158 7.04579 22.3131 6.81938C22.3131 6.7825 22.3131 6.73688 22.3187 6.69438L22.4438 6.68875C22.6704 6.69134 22.8956 6.65324 23.1087 6.57625C23.3092 6.48178 23.4907 6.35152 23.6444 6.19187C23.675 6.16312 23.7138 6.12937 23.7494 6.09562C23.785 6.12688 23.8237 6.16312 23.8544 6.19187C24.0082 6.35166 24.1899 6.48194 24.3906 6.57625C24.6035 6.65328 24.8286 6.69139 25.055 6.68875L25.18 6.69438C25.18 6.73688 25.1844 6.78188 25.1856 6.81938C25.183 7.04599 25.2211 7.27123 25.2981 7.48438C25.3926 7.68481 25.5229 7.86633 25.6825 8.02C25.7113 8.05062 25.75 8.08938 25.7787 8.125ZM10.1437 8.8125C11.7369 9.63188 16.1538 10 20 10C20.3837 10 20.75 9.99062 21.125 9.98312C21.1695 10.1693 21.2639 10.3398 21.3981 10.4762C21.6736 10.7143 22.0318 10.834 22.395 10.8094C22.475 10.8094 22.595 10.8175 22.6206 10.8238C22.6806 10.8683 22.7372 10.9172 22.79 10.97C22.9016 11.119 23.0465 11.24 23.213 11.3233C23.3795 11.4066 23.5632 11.45 23.7494 11.45C23.9356 11.45 24.1192 11.4066 24.2858 11.3233C24.4523 11.24 24.5971 11.119 24.7087 10.97C24.7631 10.9187 24.845 10.845 24.8644 10.83C24.9433 10.8166 25.0231 10.8097 25.1031 10.8094C25.4674 10.835 25.827 10.7152 26.1031 10.4762C26.3129 10.2485 26.4286 9.94966 26.4269 9.64C27.6076 9.54552 28.7663 9.26738 29.8612 8.81562C32.7794 9.30312 33.5425 9.83625 33.7162 10.0031C33.0869 10.71 28.2188 11.875 20 11.875C11.7812 11.875 6.91313 10.71 6.28563 10.0056C6.45938 9.83625 7.22312 9.30313 10.1437 8.8125ZM26.875 37.5H13.125V34.375C13.1284 32.4314 12.6248 30.5206 11.6638 28.8313C11.9392 28.7773 12.2193 28.7501 12.5 28.75H15.8787L19.4513 35.2994C19.505 35.398 19.5843 35.4803 19.6809 35.5376C19.7775 35.595 19.8877 35.6252 20 35.6252C20.1123 35.6252 20.2225 35.595 20.3191 35.5376C20.4157 35.4803 20.495 35.398 20.5487 35.2994L24.1213 28.75H27.5C27.7808 28.7504 28.0608 28.778 28.3363 28.8325C27.3751 30.5213 26.8714 32.4318 26.875 34.375V37.5ZM23.1119 27.9906L20 33.695L16.8881 27.9906L17.0756 25.7406C18.964 26.424 21.0322 26.424 22.9206 25.7406L23.1119 27.9906ZM20 25C18.0115 24.9978 16.1051 24.207 14.6991 22.8009C13.293 21.3949 12.5022 19.4885 12.5 17.5V12.7625C15.875 13.105 19.2738 13.125 20 13.125C20.7262 13.125 24.125 13.105 27.5 12.7625V17.5C27.4978 19.4885 26.707 21.3949 25.3009 22.8009C23.8949 24.207 21.9885 24.9978 20 25ZM7.5 27.1625C7.49851 26.4859 7.66624 25.8197 7.98793 25.2244C8.30961 24.6292 8.77505 24.1238 9.34187 23.7544C9.41374 23.7075 9.47517 23.6463 9.52235 23.5746C9.56952 23.5029 9.60144 23.4223 9.6161 23.3377C9.63075 23.2532 9.62784 23.1665 9.60755 23.0832C9.58725 22.9998 9.55 22.9215 9.49812 22.8531C9.01036 22.213 8.7474 21.4298 8.75 20.625C8.74696 19.6453 9.13188 18.7042 9.82063 18.0075C9.9354 17.8908 9.99981 17.7337 10 17.57V12.4375C10.4075 12.5044 10.8256 12.5625 11.25 12.6194V17.5C11.2513 19.0822 11.6812 20.6344 12.4941 21.9918C13.3071 23.3492 14.4726 24.4609 15.8669 25.2087L15.675 27.5H12.5C11.8076 27.4981 11.1211 27.6266 10.4762 27.8787C9.6038 28.2191 8.83124 28.7739 8.23 29.4919C7.75245 28.8092 7.49748 27.9956 7.5 27.1625ZM8.125 33.125C8.12891 32.3302 8.34853 31.5514 8.76042 30.8717C9.17232 30.192 9.76104 29.6369 10.4638 29.2656C11.389 30.8092 11.8768 32.5754 11.875 34.375V37.5H8.125V33.125ZM31.875 37.5H28.125V34.375C28.123 32.5724 28.6124 30.8034 29.5406 29.2581C30.2447 29.6294 30.8341 30.1856 31.2454 30.867C31.6568 31.5484 31.8744 32.3291 31.875 33.125V37.5ZM30.2344 18.8C32.0981 20.2938 33.125 22.1625 33.125 24.0625C33.0956 24.9412 32.8871 25.8047 32.5122 26.5999C32.1373 27.3952 31.6041 28.1056 30.945 28.6875C29.9615 27.918 28.7487 27.4999 27.5 27.5H24.325L24.1331 25.2087C25.5274 24.4609 26.6929 23.3492 27.5059 21.9918C28.3188 20.6344 28.7487 19.0822 28.75 17.5V12.6206C29.1744 12.5656 29.5925 12.5056 30 12.4388V18.3137C30.0002 18.4072 30.0214 18.4993 30.062 18.5835C30.1025 18.6676 30.1615 18.7416 30.2344 18.8Z" fill="white"/>
</svg>
