<svg width="40" height="40" viewBox="0 0 40 40" fill="none" xmlns="http://www.w3.org/2000/svg">
<path d="M33.125 31.25V34.375H32.5H26.25V31.25H32.5H33.125Z" fill="#59A4F2"/>
<path d="M13.75 31.25V34.375H7.5H6.875V31.25H7.5H13.75Z" fill="#59A4F2"/>
<path d="M25.625 23.75V30.625H22.5L21.875 28.75H18.125L17.5 30.625H14.375V23.75H16.6125C16.8358 24.474 17.2853 25.1074 17.8949 25.5574C18.5046 26.0073 19.2423 26.2501 20 26.2501C20.7577 26.2501 21.4954 26.0073 22.1051 25.5574C22.7147 25.1074 23.1642 24.474 23.3875 23.75H25.625Z" fill="#59A4F2"/>
<path d="M20 37.5C20.8288 37.5 21.6237 37.1708 22.2097 36.5847C22.7958 35.9987 23.125 35.2038 23.125 34.375C23.125 33.5462 22.7958 32.7513 22.2097 32.1653C21.6237 31.5792 20.8288 31.25 20 31.25V30.625H26.25V38.125H20V37.5Z" fill="#59A4F2"/>
<path d="M16.875 34.375C16.875 35.2038 17.2042 35.9987 17.7903 36.5847C18.3763 37.1708 19.1712 37.5 20 37.5V38.125H13.75V30.625H20V31.25C19.1712 31.25 18.3763 31.5792 17.7903 32.1653C17.2042 32.7513 16.875 33.5462 16.875 34.375Z" fill="#59A4F2"/>
<path d="M32.5 27.5V31.25H26.25V30.625H25.625V23.75H28.75C29.7446 23.75 30.6984 24.1451 31.4017 24.8483C32.1049 25.5516 32.5 26.5054 32.5 27.5Z" fill="#59A4F2"/>
<path d="M14.375 23.75V30.625H13.75V31.25H7.5V27.5C7.5 26.5054 7.89509 25.5516 8.59835 24.8483C9.30161 24.1451 10.2554 23.75 11.25 23.75H14.375Z" fill="#59A4F2"/>
<path d="M11.875 8.75V10H10.625C10.4055 10.0004 10.1899 10.0586 10 10.1688V1.875H25C26.3261 1.875 27.5979 2.40178 28.5355 3.33947C29.4732 4.27715 30 5.54892 30 6.875V10.1688C29.8101 10.0586 29.5945 10.0004 29.375 10H28.125V8.75C28.124 8.41878 27.992 8.10142 27.7578 7.86721C27.5236 7.633 27.2062 7.50099 26.875 7.5H13.125C12.7938 7.50099 12.4764 7.633 12.2422 7.86721C12.008 8.10142 11.876 8.41878 11.875 8.75Z" fill="#59A4F2"/>
<path d="M23.75 11.25V12.5C23.75 12.6658 23.6842 12.8247 23.5669 12.9419C23.4497 13.0592 23.2908 13.125 23.125 13.125C22.9592 13.125 22.8003 13.0592 22.6831 12.9419C22.5658 12.8247 22.5 12.6658 22.5 12.5V11.25C22.5 11.0842 22.5658 10.9253 22.6831 10.8081C22.8003 10.6908 22.9592 10.625 23.125 10.625C23.2908 10.625 23.4497 10.6908 23.5669 10.8081C23.6842 10.9253 23.75 11.0842 23.75 11.25Z" fill="#59A4F2"/>
<path d="M17.5 11.25V12.5C17.5 12.6658 17.4342 12.8247 17.3169 12.9419C17.1997 13.0592 17.0408 13.125 16.875 13.125C16.7092 13.125 16.5503 13.0592 16.4331 12.9419C16.3158 12.8247 16.25 12.6658 16.25 12.5V11.25C16.25 11.0842 16.3158 10.9253 16.4331 10.8081C16.5503 10.6908 16.7092 10.625 16.875 10.625C17.0408 10.625 17.1997 10.6908 17.3169 10.8081C17.4342 10.9253 17.5 11.0842 17.5 11.25Z" fill="#59A4F2"/>
<path d="M16.875 10.625C16.7092 10.625 16.5503 10.6908 16.4331 10.8081C16.3158 10.9253 16.25 11.0842 16.25 11.25V12.5C16.25 12.6658 16.3158 12.8247 16.4331 12.9419C16.5503 13.0592 16.7092 13.125 16.875 13.125C17.0408 13.125 17.1997 13.0592 17.3169 12.9419C17.4342 12.8247 17.5 12.6658 17.5 12.5V11.25C17.5 11.0842 17.4342 10.9253 17.3169 10.8081C17.1997 10.6908 17.0408 10.625 16.875 10.625Z" fill="white"/>
<path d="M23.125 13.125C23.2908 13.125 23.4497 13.0592 23.5669 12.9419C23.6842 12.8247 23.75 12.6658 23.75 12.5V11.25C23.75 11.0842 23.6842 10.9253 23.5669 10.8081C23.4497 10.6908 23.2908 10.625 23.125 10.625C22.9592 10.625 22.8003 10.6908 22.6831 10.8081C22.5658 10.9253 22.5 11.0842 22.5 11.25V12.5C22.5 12.6658 22.5658 12.8247 22.6831 12.9419C22.8003 13.0592 22.9592 13.125 23.125 13.125Z" fill="white"/>
<path d="M33.125 30.625V27.5C33.1237 26.3401 32.6623 25.2281 31.8421 24.4079C31.0219 23.5877 29.9099 23.1263 28.75 23.125H24.1375C24.1594 22.907 24.1657 22.6877 24.1562 22.4688L24.1 21.475C25.3132 20.8284 26.3573 19.9054 27.1477 18.7805C27.9382 17.6557 28.4528 16.3606 28.65 15H29.375C29.8718 14.9985 30.3479 14.8005 30.6992 14.4492C31.0505 14.0979 31.2485 13.6218 31.25 13.125V11.25C31.2491 10.9878 31.193 10.7287 31.0853 10.4897C30.9777 10.2506 30.8208 10.0369 30.625 9.8625V6.875C30.6227 5.38387 30.0293 3.95447 28.9749 2.90008C27.9205 1.84569 26.4911 1.25231 25 1.25H10C9.83424 1.25 9.67527 1.31585 9.55806 1.43306C9.44085 1.55027 9.375 1.70924 9.375 1.875V9.8625C9.1792 10.0369 9.02234 10.2506 8.91465 10.4897C8.80697 10.7287 8.75086 10.9878 8.75 11.25V13.125C8.75148 13.6218 8.9495 14.0979 9.30081 14.4492C9.65212 14.8005 10.1282 14.9985 10.625 15H11.35C11.5472 16.3606 12.0618 17.6557 12.8523 18.7805C13.6427 19.9054 14.6868 20.8284 15.9 21.475L15.8438 22.4688C15.8343 22.6877 15.8406 22.907 15.8625 23.125H11.25C10.0901 23.1263 8.97805 23.5877 8.15787 24.4079C7.33768 25.2281 6.87632 26.3401 6.875 27.5V30.625C6.70924 30.625 6.55027 30.6908 6.43306 30.8081C6.31585 30.9253 6.25 31.0842 6.25 31.25V34.375C6.25 34.5408 6.31585 34.6997 6.43306 34.8169C6.55027 34.9342 6.70924 35 6.875 35V38.125C6.875 38.2908 6.94085 38.4497 7.05806 38.5669C7.17527 38.6842 7.33424 38.75 7.5 38.75H32.5C32.6658 38.75 32.8247 38.6842 32.9419 38.5669C33.0592 38.4497 33.125 38.2908 33.125 38.125V35C33.2908 35 33.4497 34.9342 33.5669 34.8169C33.6842 34.6997 33.75 34.5408 33.75 34.375V31.25C33.75 31.0842 33.6842 30.9253 33.5669 30.8081C33.4497 30.6908 33.2908 30.625 33.125 30.625ZM13.125 37.5H8.125V35H13.125V37.5ZM13.125 33.75H7.5V31.875H13.125V33.75ZM13.75 30C13.5842 30 13.4253 30.0658 13.3081 30.1831C13.1908 30.3003 13.125 30.4592 13.125 30.625H8.125V27.5C8.125 26.6712 8.45424 25.8763 9.04029 25.2903C9.62634 24.7042 10.4212 24.375 11.25 24.375H13.75V30ZM30 11.25V13.125C30 13.2908 29.9342 13.4497 29.8169 13.5669C29.6997 13.6842 29.5408 13.75 29.375 13.75H28.75V10.625H29.375C29.5408 10.625 29.6997 10.6908 29.8169 10.8081C29.9342 10.9253 30 11.0842 30 11.25ZM11.25 13.75H10.625C10.4592 13.75 10.3003 13.6842 10.1831 13.5669C10.0658 13.4497 10 13.2908 10 13.125V11.25C10 11.0842 10.0658 10.9253 10.1831 10.8081C10.3003 10.6908 10.4592 10.625 10.625 10.625H11.25V13.75ZM11.25 8.75V9.375H10.625V2.5H25C26.1599 2.50132 27.2719 2.96268 28.0921 3.78287C28.9123 4.60305 29.3737 5.71508 29.375 6.875V9.375H28.75V8.75C28.7485 8.25318 28.5505 7.77712 28.1992 7.42581C27.8479 7.0745 27.3718 6.87648 26.875 6.875H13.125C12.6282 6.87648 12.1521 7.0745 11.8008 7.42581C11.4495 7.77712 11.2515 8.25318 11.25 8.75ZM12.5 13.75V8.75C12.5 8.58424 12.5658 8.42527 12.6831 8.30806C12.8003 8.19085 12.9592 8.125 13.125 8.125H26.875C27.0408 8.125 27.1997 8.19085 27.3169 8.30806C27.4342 8.42527 27.5 8.58424 27.5 8.75V13.75C27.5 15.7391 26.7098 17.6468 25.3033 19.0533C23.8968 20.4598 21.9891 21.25 20 21.25C18.0109 21.25 16.1032 20.4598 14.6967 19.0533C13.2902 17.6468 12.5 15.7391 12.5 13.75ZM22.9062 22.5438C22.9295 22.9397 22.8716 23.3363 22.736 23.7091C22.6005 24.0819 22.3902 24.4231 22.118 24.7117C21.8459 25.0002 21.5176 25.2302 21.1534 25.3873C20.7892 25.5445 20.3967 25.6256 20 25.6256C19.6033 25.6256 19.2108 25.5445 18.8466 25.3873C18.4824 25.2302 18.1541 25.0002 17.882 24.7117C17.6098 24.4231 17.3995 24.0819 17.264 23.7091C17.1284 23.3363 17.0705 22.9397 17.0938 22.5438L17.125 22.0062C18.9851 22.6646 21.0149 22.6646 22.875 22.0062L22.9062 22.5438ZM15 24.375H16.1875C16.5105 25.1176 17.0434 25.7498 17.7207 26.1938C18.3979 26.6378 19.1902 26.8743 20 26.8743C20.8098 26.8743 21.6021 26.6378 22.2793 26.1938C22.9566 25.7498 23.4895 25.1176 23.8125 24.375H25V30H22.95L22.4688 28.55C22.4257 28.4266 22.3455 28.3195 22.2392 28.2434C22.1329 28.1673 22.0057 28.126 21.875 28.125H18.125C17.9943 28.126 17.8671 28.1673 17.7608 28.2434C17.6545 28.3195 17.5743 28.4266 17.5312 28.55L17.05 30H15V24.375ZM21.6313 30H18.3687L18.575 29.375H21.425L21.6313 30ZM14.375 37.5V31.25H17.9313C17.4145 31.5913 16.9904 32.0554 16.697 32.6007C16.4037 33.1461 16.2501 33.7557 16.2501 34.375C16.2501 34.9943 16.4037 35.6039 16.697 36.1493C16.9904 36.6946 17.4145 37.1587 17.9313 37.5H14.375ZM20 36.875C19.5055 36.875 19.0222 36.7284 18.6111 36.4537C18.2 36.179 17.8795 35.7885 17.6903 35.3317C17.5011 34.8749 17.4516 34.3722 17.548 33.8873C17.6445 33.4023 17.8826 32.9569 18.2322 32.6072C18.5819 32.2576 19.0273 32.0195 19.5123 31.923C19.9972 31.8266 20.4999 31.8761 20.9567 32.0653C21.4135 32.2545 21.804 32.575 22.0787 32.9861C22.3534 33.3972 22.5 33.8805 22.5 34.375C22.5 35.038 22.2366 35.6739 21.7678 36.1428C21.2989 36.6116 20.663 36.875 20 36.875ZM25.625 37.5H22.0688C22.5855 37.1587 23.0096 36.6946 23.303 36.1493C23.5963 35.6039 23.7499 34.9943 23.7499 34.375C23.7499 33.7557 23.5963 33.1461 23.303 32.6007C23.0096 32.0554 22.5855 31.5913 22.0688 31.25H25.625V37.5ZM26.25 30V24.375H28.75C29.5788 24.375 30.3737 24.7042 30.9597 25.2903C31.5458 25.8763 31.875 26.6712 31.875 27.5V30.625H26.875C26.875 30.4592 26.8092 30.3003 26.6919 30.1831C26.5747 30.0658 26.4158 30 26.25 30ZM31.875 37.5H26.875V35H31.875V37.5ZM32.5 33.75H26.875V31.875H32.5V33.75Z" fill="white"/>
</svg>
