<svg width="40" height="40" viewBox="0 0 40 40" fill="none" xmlns="http://www.w3.org/2000/svg">
<path d="M28.6438 25.1062L32.1813 32.1813L25.1063 28.6438L21.5688 21.5687L28.6438 25.1062Z" fill="#59A4F2"/>
<path d="M31.8749 1.875V9.10625L29.9062 9.8125C29.5561 9.93699 29.2381 10.1377 28.9749 10.4L28.1062 11.2688L27.7374 11.6375L23.1687 8.4125C22.4196 7.88436 21.5395 7.57295 20.6249 7.5125H20.5687C20.425 6.63652 19.9746 5.84011 19.298 5.26547C18.6214 4.69082 17.7626 4.37534 16.8749 4.37534C15.9873 4.37534 15.1284 4.69082 14.4519 5.26547C13.7753 5.84011 13.3249 6.63652 13.1812 7.5125C12.6185 7.55135 12.0668 7.68665 11.5499 7.9125L8.1312 9.4C8.12603 9.37959 8.12392 9.35853 8.12495 9.3375V1.875H31.8749Z" fill="#59A4F2"/>
<path d="M23.1688 8.41245L27.7375 11.6375L24.2688 15.1062C23.9572 15.4173 23.6881 15.7683 23.4688 16.15C21.9403 16.6357 20.5337 17.4434 19.3438 18.5187L17.825 18.275C17.1979 18.1748 16.5956 17.9563 16.05 17.6312L10.625 14.375L8.45629 10.575C8.24961 10.2174 8.13774 9.81291 8.13129 9.39995L11.55 7.91245C12.0668 7.6866 12.6186 7.5513 13.1813 7.51245C13.1434 7.7144 13.1246 7.91947 13.125 8.12495C13.125 10.1937 16.875 14.375 16.875 14.375C16.875 14.375 20.625 10.1937 20.625 8.12495C20.6255 7.91947 20.6067 7.7144 20.5688 7.51245H20.625C21.5396 7.5729 22.4197 7.88431 23.1688 8.41245Z" fill="#59A4F2"/>
<path d="M17.825 18.275L19.3438 18.5187C17.3428 20.3141 16.0558 22.7704 15.7188 25.4375L11.8813 27.2062C11.4628 27.4014 11.0188 27.536 10.5625 27.6062L1.875 28.9812V20.5687L5.6125 23.2875C5.80116 23.4257 6.02658 23.5048 6.26021 23.5148C6.49385 23.5248 6.72521 23.4653 6.925 23.3437C7.28363 23.1291 7.58043 22.825 7.78639 22.4613C7.99234 22.0976 8.1004 21.6867 8.1 21.2687C8.10091 20.6949 7.89449 20.14 7.51875 19.7063C7.284 19.4337 7.11096 19.1137 7.0115 18.768C6.91205 18.4223 6.88852 18.0592 6.94255 17.7036C6.99657 17.348 7.12686 17.0083 7.32449 16.7078C7.52212 16.4072 7.7824 16.153 8.0875 15.9625L10.625 14.375L16.05 17.6312C16.5955 17.9563 17.1979 18.1748 17.825 18.275Z" fill="#59A4F2"/>
<path d="M16.875 9.375C17.5654 9.375 18.125 8.81536 18.125 8.125C18.125 7.43464 17.5654 6.875 16.875 6.875C16.1846 6.875 15.625 7.43464 15.625 8.125C15.625 8.81536 16.1846 9.375 16.875 9.375Z" fill="#59A4F2"/>
<path d="M8.13125 9.4C8.1377 9.81296 8.24958 10.2174 8.45625 10.575L10.625 14.375L8.0875 15.9625C7.7824 16.153 7.52212 16.4072 7.32449 16.7078C7.12686 17.0083 6.99657 17.348 6.94255 17.7036C6.88852 18.0592 6.91205 18.4223 7.0115 18.768C7.11096 19.1137 7.284 19.4337 7.51875 19.7063C7.89449 20.14 8.10091 20.6949 8.1 21.2687C8.1004 21.6867 7.99234 22.0976 7.78639 22.4613C7.58043 22.825 7.28363 23.1291 6.925 23.3438C6.72521 23.4653 6.49385 23.5248 6.26021 23.5148C6.02658 23.5048 5.80116 23.4257 5.6125 23.2875L1.875 20.5688V1.875H8.125V9.3375C8.12398 9.35853 8.12608 9.37959 8.13125 9.4Z" fill="#59A4F2"/>
<path d="M29.2019 24.8275C29.1412 24.7065 29.043 24.6085 28.9219 24.5481L21.8512 21.0125C21.7339 20.9537 21.601 20.9333 21.4714 20.9543C21.3418 20.9753 21.2222 21.0365 21.1293 21.1293C21.0365 21.2222 20.9753 21.3418 20.9543 21.4714C20.9333 21.601 20.9537 21.7339 21.0125 21.8512L24.5481 28.9225C24.6088 29.0435 24.707 29.1415 24.8281 29.2019L31.8987 32.7375C32.0161 32.7963 32.149 32.8166 32.2786 32.7957C32.4081 32.7747 32.5278 32.7135 32.6206 32.6206C32.7135 32.5278 32.7747 32.4081 32.7957 32.2786C32.8166 32.149 32.7963 32.0161 32.7375 31.8987L29.2019 24.8275ZM25.5731 28.1769L22.9694 22.9694L28.1769 25.5731L30.7806 30.7806L25.5731 28.1769Z" fill="white"/>
<path d="M18.75 8.125C18.75 7.75416 18.64 7.39165 18.434 7.08331C18.228 6.77496 17.9351 6.53464 17.5925 6.39273C17.2499 6.25081 16.8729 6.21368 16.5092 6.28603C16.1455 6.35838 15.8114 6.53695 15.5492 6.79918C15.287 7.0614 15.1084 7.39549 15.036 7.75921C14.9637 8.12292 15.0008 8.49992 15.1427 8.84253C15.2846 9.18514 15.525 9.47798 15.8333 9.684C16.1416 9.89003 16.5042 10 16.875 10C17.3723 10 17.8492 9.80245 18.2008 9.45082C18.5525 9.09919 18.75 8.62228 18.75 8.125ZM16.25 8.125C16.25 8.00139 16.2867 7.88055 16.3553 7.77777C16.424 7.67499 16.5216 7.59488 16.6358 7.54757C16.75 7.50027 16.8757 7.48789 16.9969 7.51201C17.1182 7.53612 17.2295 7.59565 17.3169 7.68306C17.4043 7.77047 17.4639 7.88183 17.488 8.00307C17.5121 8.12431 17.4997 8.24997 17.4524 8.36418C17.4051 8.47838 17.325 8.57599 17.2222 8.64467C17.1195 8.71334 16.9986 8.75 16.875 8.75C16.7092 8.75 16.5503 8.68415 16.4331 8.56694C16.3158 8.44973 16.25 8.29076 16.25 8.125Z" fill="white"/>
<path d="M32.5 16.4206V1.875C32.5 1.70924 32.4342 1.55027 32.3169 1.43306C32.1997 1.31585 32.0408 1.25 31.875 1.25H1.875C1.70924 1.25 1.55027 1.31585 1.43306 1.43306C1.31585 1.55027 1.25 1.70924 1.25 1.875V30C1.25 30.1658 1.31585 30.3247 1.43306 30.4419C1.55027 30.5592 1.70924 30.625 1.875 30.625H15.6163C16.2281 32.4634 17.2807 34.124 18.682 35.462C20.0833 36.7999 21.7909 37.7746 23.6556 38.3008C25.5202 38.8269 27.4854 38.8887 29.3794 38.4807C31.2735 38.0726 33.0388 37.2072 34.5215 35.9598C36.0041 34.7125 37.1588 33.1213 37.8849 31.325C38.611 29.5287 38.8864 27.5819 38.687 25.6547C38.4876 23.7275 37.8195 21.8784 36.7411 20.2688C35.6626 18.6592 34.2066 17.338 32.5 16.4206ZM26.875 15C26.2849 15.0047 25.696 15.0534 25.1131 15.1456L29.4169 10.8419C29.615 10.6454 29.854 10.495 30.1169 10.4012L31.25 9.99438V15.8456C29.8587 15.2883 28.3738 15.0013 26.875 15ZM15.1619 25.0062L11.6187 26.6388C11.2527 26.8094 10.8642 26.9273 10.465 26.9888L2.5 28.25V21.7962L5.24562 23.7963C5.55639 24.0229 5.93099 24.1452 6.31562 24.1456C6.64417 24.1461 6.96636 24.0552 7.24625 23.8831C7.69678 23.6113 8.06958 23.2279 8.32862 22.7699C8.58767 22.312 8.72419 21.7949 8.725 21.2687C8.72492 20.5455 8.46496 19.8464 7.9925 19.2987C7.81647 19.0945 7.68671 18.8546 7.61212 18.5955C7.53753 18.3364 7.51987 18.0642 7.56036 17.7976C7.60085 17.531 7.69853 17.2764 7.8467 17.0511C7.99486 16.8258 8.19001 16.6353 8.41875 16.4925L10.6319 15.1081L15.7294 18.1706C16.3435 18.5357 17.0209 18.7817 17.7262 18.8956L18.0606 18.9487C16.5291 20.6452 15.5222 22.7493 15.1619 25.0062ZM19.1688 17.8575L17.9237 17.6581C17.3757 17.5697 16.8493 17.3789 16.3719 17.0956L11.0869 13.9231L9 10.2619C8.91462 10.112 8.85146 9.95053 8.8125 9.7825L11.7987 8.48625C12.029 8.38628 12.2674 8.3062 12.5112 8.24687C12.6281 10.5106 16.0163 14.3537 16.41 14.7925C16.4686 14.8578 16.5403 14.91 16.6204 14.9457C16.7005 14.9814 16.7873 14.9999 16.875 14.9999C16.9627 14.9999 17.0495 14.9814 17.1296 14.9457C17.2097 14.91 17.2814 14.8578 17.34 14.7925C17.7344 14.355 21.135 10.4956 21.24 8.23375C21.8048 8.35772 22.3393 8.59269 22.8125 8.925L26.7744 11.7188L23.8288 14.6644C23.5393 14.9605 23.2832 15.2874 23.065 15.6394C21.6371 16.1243 20.3147 16.8772 19.1688 17.8575ZM13.75 8.125C13.75 7.2962 14.0792 6.50134 14.6653 5.91529C15.2513 5.32924 16.0462 5 16.875 5C17.7038 5 18.4987 5.32924 19.0847 5.91529C19.6708 6.50134 20 7.2962 20 8.125C20 9.31625 18.24 11.8025 16.875 13.4219C15.51 11.8031 13.75 9.31812 13.75 8.125ZM31.25 8.66625L29.6963 9.22375C29.2593 9.38013 28.8622 9.63086 28.5331 9.95813L27.6694 10.8219L23.5306 7.90375C22.8026 7.39451 21.9639 7.06567 21.0838 6.94438C20.8268 6.02585 20.2764 5.21662 19.5165 4.64015C18.7567 4.06368 17.8291 3.75164 16.8753 3.75164C15.9215 3.75164 14.9939 4.06368 14.2341 4.64015C13.4742 5.21662 12.9238 6.02585 12.6669 6.94438C12.1965 7.0177 11.7375 7.1513 11.3013 7.34188L8.75 8.4475V2.5H31.25V8.66625ZM7.5 2.5V9.3375C7.49964 9.37929 7.50215 9.42105 7.5075 9.4625C7.52432 9.96231 7.6636 10.4503 7.91313 10.8837L9.78438 14.1625L7.75688 15.4306C7.37521 15.6689 7.04959 15.9869 6.80237 16.3629C6.55515 16.7388 6.39217 17.1638 6.32461 17.6087C6.25705 18.0535 6.2865 18.5077 6.41096 18.9401C6.53541 19.3725 6.75192 19.7729 7.04562 20.1138C7.32441 20.4333 7.47708 20.8435 7.475 21.2675C7.47428 21.5783 7.39336 21.8836 7.24007 22.1539C7.08678 22.4243 6.86631 22.6505 6.6 22.8106C6.50562 22.8672 6.3966 22.8945 6.2867 22.8892C6.17681 22.8838 6.07095 22.8461 5.9825 22.7806L2.5 20.25V2.5H7.5ZM3.38562 29.375L10.6556 28.2244C11.1701 28.1452 11.6707 27.9935 12.1425 27.7738L15.0219 26.4469C15.0162 26.59 15 26.7306 15 26.875C15.0011 27.7155 15.0916 28.5536 15.27 29.375H3.38562ZM27.5 37.4681V35.625H26.25V37.4681C23.657 37.313 21.2107 36.213 19.3738 34.3762C17.537 32.5393 16.437 30.093 16.2819 27.5H18.125V26.25H16.2819C16.437 23.657 17.537 21.2107 19.3738 19.3738C21.2107 17.537 23.657 16.437 26.25 16.2819V18.125H27.5V16.2819C30.093 16.437 32.5393 17.537 34.3762 19.3738C36.213 21.2107 37.313 23.657 37.4681 26.25H35.625V27.5H37.4681C37.313 30.093 36.213 32.5393 34.3762 34.3762C32.5393 36.213 30.093 37.313 27.5 37.4681Z" fill="white"/>
</svg>
