<svg width="51" height="51" viewBox="0 0 51 51" fill="none" xmlns="http://www.w3.org/2000/svg">
<path d="M39.4839 6.69912V8.33989H37.8388C36.9315 8.33989 36.1936 9.07577 36.1936 9.98065V11.6214C36.1936 12.5263 36.9315 13.2622 37.8388 13.2622H39.4839V14.903C39.4839 15.8078 40.2218 16.5437 41.1291 16.5437H42.7742C43.6816 16.5437 44.4194 15.8078 44.4194 14.903V13.2622H46.0646C46.9719 13.2622 47.7097 12.5263 47.7097 11.6214V9.98065C47.7097 9.07577 46.9719 8.33989 46.0646 8.33989H44.4194V6.69912C44.4194 5.79423 43.6816 5.05835 42.7742 5.05835H41.1291C40.2218 5.05835 39.4839 5.79423 39.4839 6.69912ZM46.0646 9.97983V11.6214H42.7742V14.903H41.1291V11.6214H37.8388V9.98065H41.1291V6.69912H42.7742V9.98065L46.0646 9.97983Z" fill="white"/>
<path d="M50.1774 2.59734C47.6356 2.59734 45.1399 1.90821 42.9617 0.603803L41.9516 0L40.9415 0.603803C38.7633 1.90821 36.2676 2.59734 33.7258 2.59734H32.9032V6.69926H31.2581V5.87887C31.2581 2.71219 28.6743 0.136184 25.5 0.136184C22.3257 0.136184 19.7419 2.71219 19.7419 5.87887V6.69926H8.22581C7.3185 6.69926 6.58065 7.43514 6.58065 8.34003V14.9129C4.71421 14.9663 2.98432 15.8154 1.81461 17.2757C0.644081 18.7343 0 20.567 0 22.4588C0 24.6829 0.868645 26.7741 2.44553 28.3467L6.58065 32.4708V49.3592C6.58065 50.2641 7.3185 51 8.22581 51H42.7742C43.6815 51 44.4194 50.2641 44.4194 49.3592V20.5145C48.4311 18.4143 51 14.2886 51 9.619V2.59734H50.1774ZM39.4839 30.999L37.7441 32.9515H27.9677V42.7962H37.8387V35.3143L39.4839 33.4684V46.0777H11.5161V37.3931L12.3387 38.2135L22.2319 28.3467C22.82 27.7602 23.3095 27.1006 23.692 26.3885H31.4094C31.75 27.3409 32.6548 28.0292 33.7258 28.0292C35.0864 28.0292 36.1935 26.925 36.1935 25.5681C36.1935 24.2112 35.0864 23.1069 33.7258 23.1069C32.6548 23.1069 31.75 23.7952 31.4094 24.7477H24.3517C24.5631 24.0069 24.6774 23.2316 24.6774 22.435C24.6774 20.567 24.0333 18.7351 22.8628 17.2757C21.6544 15.7678 19.8505 14.9031 17.9133 14.9031C16.2205 14.9031 14.6296 15.5602 13.4319 16.7547L12.3387 17.845L11.5161 17.0246V11.6216H33.0636C33.6814 15.4503 36.057 18.7203 39.4839 20.5145V30.999ZM33.7612 39.8895L36.1935 37.1601V41.1554H29.6129V34.5923H36.1935V34.6908L33.6904 37.4989L31.8396 35.6531L30.6765 36.8131L33.7612 39.8895ZM32.9032 25.5681C32.9032 25.1161 33.2717 24.7477 33.7258 24.7477C34.1799 24.7477 34.5484 25.1161 34.5484 25.5681C34.5484 26.0201 34.1799 26.3885 33.7258 26.3885C33.2717 26.3885 32.9032 26.0201 32.9032 25.5681ZM21.3871 5.87887C21.3871 3.61707 23.2321 1.77695 25.5 1.77695C27.7679 1.77695 29.6129 3.61707 29.6129 5.87887V6.69926H27.9677V5.87887C27.9677 4.52196 26.8605 3.41772 25.5 3.41772C24.1395 3.41772 23.0323 4.52196 23.0323 5.87887V6.69926H21.3871V5.87887ZM26.3226 6.69926H24.6774V5.87887C24.6774 5.42684 25.0459 5.05849 25.5 5.05849C25.9541 5.05849 26.3226 5.42684 26.3226 5.87887V6.69926ZM32.9032 8.34003V9.61983C32.9032 9.74124 32.9139 9.8602 32.918 9.98079H9.87097V15.7177C9.35603 15.4273 8.80326 15.2132 8.22581 15.0778V8.34003H32.9032ZM1.64516 22.435C1.64516 20.9378 2.16174 19.4702 3.10031 18.3003C3.99363 17.1838 5.3295 16.5439 6.76408 16.5439C8.01687 16.5439 9.19563 17.0304 10.0824 17.9147L12.3387 20.165L14.595 17.9147C15.4818 17.0304 16.6605 16.5439 17.9133 16.5439C19.3471 16.5439 20.683 17.1838 21.5771 18.3003C22.5157 19.4694 23.0323 20.9378 23.0323 22.4588C23.0323 23.253 22.8867 24.0233 22.6226 24.7477H15.1207L13.3143 28.3525L10.7635 20.7229L8.4915 26.3885H6.58065V28.0292H9.60527L10.6236 25.491L13.0083 32.6283L16.1374 26.3885H21.7441C21.5393 26.6674 21.3188 26.9373 21.0688 27.1867L12.3387 35.8934L3.60866 27.1867C2.34271 25.9241 1.64516 24.2448 1.64516 22.435ZM42.7742 49.3592H8.22581V34.1116L9.87097 35.7523V47.7185H41.129V21.2307C41.324 21.2996 41.5156 21.3726 41.7155 21.4317L41.9516 21.5023L42.1877 21.4317C42.3876 21.3718 42.5792 21.2988 42.7742 21.2307V49.3592ZM49.3548 9.61983C49.3548 14.2952 46.3903 18.3504 41.9516 19.7868C37.513 18.3504 34.5484 14.2952 34.5484 9.61983V4.21677C37.1017 4.08305 39.5892 3.32748 41.7887 2.01158L41.9516 1.91314L42.1145 2.01076C44.3132 3.32748 46.8015 4.08305 49.3548 4.21677V9.61983Z" fill="white"/>
<path d="M24.6774 41.1553H26.3225V42.796H24.6774V41.1553Z" fill="white"/>
<path d="M21.3871 41.1553H23.0322V42.796H21.3871V41.1553Z" fill="white"/>
<path d="M18.0968 41.1553H19.742V42.796H18.0968V41.1553Z" fill="white"/>
<path d="M26.3226 19.8254H31.2581V21.4662H26.3226V19.8254Z" fill="white"/>
<path d="M26.3226 16.5439H31.2581V18.1847H26.3226V16.5439Z" fill="white"/>
<path d="M26.3226 13.2625H31.2581V14.9032H26.3226V13.2625Z" fill="white"/>
</svg>
