<svg width="40" height="40" viewBox="0 0 40 40" fill="none" xmlns="http://www.w3.org/2000/svg">
<path d="M15.5932 37.3333C16.9831 37.3333 18.339 36.8667 19.4124 36H30.5085V38C30.5085 38.7333 29.8983 39.3333 29.1526 39.3333H2.03391C1.28815 39.3333 0.677979 38.7333 0.677979 38V36H11.774C12.8475 36.8667 14.2034 37.3333 15.5932 37.3333Z" fill="#59A4F2"/>
<path d="M19.661 31.3333C19.661 33.5444 17.8418 35.3333 15.5932 35.3333C13.3447 35.3333 11.5255 33.5444 11.5255 31.3333C11.5255 29.1222 13.3447 27.3333 15.5932 27.3333C17.8418 27.3333 19.661 29.1222 19.661 31.3333Z" fill="#59A4F2"/>
<path d="M29.1526 23.3333H2.03391C1.28815 23.3333 0.677979 23.9333 0.677979 24.6667V32.6667H9.63843C9.53674 32.2333 9.49154 31.7778 9.49154 31.3333C9.49154 28.0222 12.226 25.3333 15.5932 25.3333C18.9605 25.3333 21.6949 28.0222 21.6949 31.3333C21.6949 31.7778 21.6497 32.2333 21.548 32.6667H30.5085V24.6667C30.5085 23.9333 29.8983 23.3333 29.1526 23.3333ZM27.7966 27.3333H24.4068V25.3333H27.7966V27.3333Z" fill="#59A4F2"/>
<path d="M19.8192 19.0444L21.6949 23.3333H9.49152L11.2316 19.3556L11.5254 18.6667H19.661L19.8192 19.0444Z" fill="#59A4F2"/>
<path d="M36.6101 18.7444V26H30.5084V24.6667C30.5084 23.9333 29.8982 23.3333 29.1525 23.3333H22.7005C24.079 21.7778 26.8248 20.4667 30.3502 19.6444C31.5141 19.3778 32.6892 19.1556 33.8643 19.0111C34.757 18.8889 35.6723 18.8111 36.6101 18.7444Z" fill="#59A4F2"/>
<path d="M36.6101 4V18.7444C35.6723 18.8 34.757 18.8889 33.8757 19L29.2655 12.4667C30.4181 12.2333 31.1864 11.8111 31.1864 11.3333C31.1864 10.9111 30.5875 10.5444 29.661 10.2889C30.1356 9.47778 30.2938 8.8 29.9887 8.5C29.7627 8.27778 29.322 8.31111 28.757 8.54445C28.5084 7.8 28.1695 7.33333 27.7853 7.33333C27.1977 7.33333 26.6892 8.45556 26.5085 10.0111C24.5536 10.1111 23.0508 10.6667 23.0508 11.3333C23.0508 11.7556 23.6497 12.1222 24.5762 12.3778C24.1017 13.1889 23.9435 13.8667 24.2486 14.1667C24.6101 14.5333 25.5706 14.2222 26.6553 13.4667C26.8926 14.5889 27.322 15.3444 27.7966 15.3444C28.0339 15.3222 28.2486 15.1778 28.3616 14.9667L30.2373 19.3778C29.4689 19.0333 28.6327 18.8667 27.7966 18.8889C25.4124 18.8889 25.4124 19.8222 23.0395 19.8222C21.322 19.8222 20.8474 19.3333 19.8192 19.0667L19.661 18.6667H11.5254L11.2316 19.3556C10.4746 19.0222 9.6497 18.8556 8.81354 18.8667V4H36.6101ZM17.6271 9.33333C17.6271 8.52222 17.1299 7.8 16.3729 7.48889C15.6158 7.17778 14.7344 7.35556 14.1582 7.92222C13.5819 8.48889 13.4011 9.35556 13.7175 10.1C14.0339 10.8444 14.7683 11.3333 15.5932 11.3333C16.7118 11.3333 17.6271 10.4333 17.6271 9.33333Z" fill="#59A4F2"/>
<path d="M39.322 0H6.1017C5.72881 0 5.42373 0.3 5.42373 0.666667V22.6667H2.0339C0.915254 22.6667 0 23.5667 0 24.6667V38C0 39.1 0.915254 40 2.0339 40H29.1525C30.2712 40 31.1864 39.1 31.1864 38V29.3333H39.322C39.6949 29.3333 40 29.0333 40 28.6667V0.666667C40 0.3 39.6949 0 39.322 0ZM1.35593 33.3333H9.12994C9.36723 34.0556 9.71751 34.7333 10.1921 35.3333H1.35593V33.3333ZM10.1695 31.3333C10.1695 29.1778 11.4915 27.2333 13.5141 26.4111C15.5367 25.5889 17.8757 26.0444 19.4237 27.5667C20.9718 29.0889 21.435 31.3889 20.5989 33.3778C19.7627 35.3667 17.7853 36.6667 15.5932 36.6667C12.5989 36.6667 10.1695 34.2778 10.1695 31.3333ZM29.8305 38C29.8305 38.3667 29.5254 38.6667 29.1525 38.6667H2.0339C1.66102 38.6667 1.35593 38.3667 1.35593 38V36.6667H11.548C13.9435 38.4444 17.2429 38.4444 19.6384 36.6667H29.8305V38ZM29.8305 35.3333H21.0056C21.4689 34.7333 21.8305 34.0556 22.0678 33.3333H29.8305V35.3333ZM29.8305 32H22.339C22.3616 31.7778 22.3729 31.5556 22.3729 31.3333C22.3729 27.6556 19.3333 24.6667 15.5932 24.6667C11.8531 24.6667 8.81356 27.6556 8.81356 31.3333C8.81356 31.5556 8.82486 31.7778 8.84746 32H1.35593V24.6667C1.35593 24.3 1.66102 24 2.0339 24H29.1525C29.5254 24 29.8305 24.3 29.8305 24.6667V32ZM25.1977 12.1222C25.1186 11.9333 24.9492 11.7889 24.7458 11.7333C24.4068 11.6667 24.0791 11.5333 23.7853 11.3444C24.6328 10.8889 25.5819 10.6667 26.5424 10.6889C26.8701 10.6778 27.1412 10.4222 27.1864 10.1C27.2203 9.38889 27.435 8.68889 27.7853 8.07778C27.9322 8.28889 28.0452 8.51111 28.113 8.75556C28.1695 8.93333 28.3051 9.07778 28.4746 9.15556C28.6441 9.23333 28.8475 9.24444 29.0169 9.16667C29.1525 9.11111 29.3107 9.06667 29.4576 9.04445C29.3785 9.37778 29.2429 9.68889 29.0621 9.96667C28.9605 10.1444 28.9492 10.3667 29.0282 10.5556C29.1073 10.7444 29.2768 10.8889 29.4802 10.9444C29.8192 11.0111 30.1469 11.1444 30.4407 11.3333C30 11.6111 29.4915 11.7778 28.9718 11.8444C28.678 11.9 28.452 12.1444 28.4181 12.4333C28.3955 13.2 28.1808 13.9444 27.7966 14.6C27.548 14.2111 27.3785 13.7778 27.3107 13.3222C27.2655 13.1 27.1073 12.9222 26.8927 12.8333C26.8136 12.8 26.7345 12.7889 26.6441 12.7889C26.4972 12.7889 26.3616 12.8333 26.2486 12.9111C25.8079 13.2556 25.2994 13.5 24.7684 13.6333C24.8475 13.3 24.9718 12.9889 25.1638 12.7C25.2655 12.5222 25.2768 12.3111 25.1977 12.1222ZM29.5141 13.9889L32.7006 18.5111C32.0339 18.6222 31.3898 18.7333 30.7684 18.8667L29.1299 15.0222C29.2994 14.6889 29.4237 14.3444 29.5141 13.9889ZM30.3616 12.8444C31.3333 12.4889 31.8644 11.9667 31.8644 11.3333C31.8644 10.9 31.6271 10.3444 30.6102 9.91111C31.0169 8.9 30.7797 8.33333 30.4746 8.03333C30.1243 7.71111 29.6271 7.6 29.1638 7.73333C28.7345 6.86667 28.2034 6.66667 27.7966 6.66667C26.8927 6.66667 26.226 7.65556 25.9209 9.38889C24.113 9.55556 22.3729 10.1444 22.3729 11.3333C22.3729 11.7667 22.6102 12.3222 23.6271 12.7556C23.2203 13.7667 23.4576 14.3333 23.7627 14.6333C24.2825 15.1444 25.1412 15.0889 26.2373 14.5C26.6893 15.7111 27.3107 16 27.7966 16C27.887 16 27.9774 15.9889 28.0565 15.9667L29.0508 18.3C28.6328 18.2333 28.2147 18.2 27.7853 18.2C26.8814 18.1778 25.9887 18.3556 25.1525 18.7111C24.4859 19.0111 23.7627 19.1556 23.0282 19.1333C22.2938 19.1556 21.5706 19.0111 20.904 18.7111C20.7119 18.6333 20.5198 18.5667 20.3051 18.5L20.2599 18.4111C20.1582 18.1667 19.9096 18 19.6384 18H11.5028C11.2316 18 10.9831 18.1556 10.8814 18.4111L10.8362 18.5111C10.3955 18.3667 9.9322 18.2667 9.46893 18.2333V4.66667H35.9096V18.1222C35.322 18.1667 34.7458 18.2222 34.1808 18.2889L30.3616 12.8444ZM28.1921 19.5444C26.0452 20.1111 24.0565 21.1889 22.4181 22.6667H22.1469L21.0621 20.1889C21.7062 20.3889 22.3729 20.4778 23.0508 20.4667C23.9548 20.4889 24.8475 20.3111 25.6723 19.9556C26.339 19.6556 27.0734 19.5111 27.7966 19.5333C27.9435 19.5333 28.0678 19.5444 28.1921 19.5444ZM20.6667 22.6667H10.5198L11.9661 19.3333H19.209L20.6667 22.6667ZM10.3277 19.7333L9.49153 21.6444V19.5667C9.77401 19.6 10.0565 19.6556 10.3277 19.7333ZM29.1525 22.6667H24.5198C26.9379 21.0444 31.1186 19.8444 35.9322 19.4556V25.3333H31.1864V24.6667C31.1864 23.5667 30.2712 22.6667 29.1525 22.6667ZM38.6441 28H31.1864V26.6667H36.6102C36.9831 26.6667 37.2881 26.3667 37.2881 26V4C37.2881 3.63333 36.9831 3.33333 36.6102 3.33333H8.81356C8.44068 3.33333 8.13559 3.63333 8.13559 4V22.6667H6.77966V1.33333H38.6441V28Z" fill="white"/>
<path d="M15.5932 12C16.6893 12 17.6836 11.3556 18.1017 10.3556C18.5198 9.35557 18.2938 8.21112 17.5141 7.44446C16.7345 6.67779 15.5706 6.45557 14.5537 6.86668C13.5367 7.27779 12.8813 8.25557 12.8813 9.33334C12.8813 10.8111 14.0904 12 15.5932 12ZM15.5932 8.00001C16.1469 8.00001 16.6328 8.32223 16.8475 8.82223C17.0621 9.32223 16.9378 9.8889 16.5537 10.2778C16.1695 10.6556 15.5819 10.7778 15.0734 10.5667C14.565 10.3556 14.2373 9.87779 14.2373 9.33334C14.2373 8.60001 14.8475 8.00001 15.5932 8.00001Z" fill="white"/>
<path d="M27.7966 24.6667H24.4068C24.0339 24.6667 23.7288 24.9667 23.7288 25.3333V27.3333C23.7288 27.7 24.0339 28 24.4068 28H27.7966C28.1695 28 28.4746 27.7 28.4746 27.3333V25.3333C28.4746 24.9667 28.1695 24.6667 27.7966 24.6667ZM27.1187 26.6667H25.0848V26H27.1187V26.6667Z" fill="white"/>
<path d="M15.5932 26.6667C13.6723 26.6667 11.9435 27.8 11.209 29.5444C10.4746 31.2889 10.8813 33.3 12.2373 34.6333C13.5932 35.9667 15.6384 36.3667 17.4124 35.6444C19.1864 34.9222 20.339 33.2222 20.339 31.3333C20.339 28.7556 18.2147 26.6667 15.5932 26.6667ZM15.5932 34.6667C14.226 34.6667 12.983 33.8555 12.4633 32.6111C11.9435 31.3667 12.226 29.9333 13.1977 28.9778C14.1695 28.0222 15.6271 27.7444 16.8926 28.2556C18.1582 28.7667 18.983 29.9889 18.983 31.3333C18.983 33.1778 17.4689 34.6667 15.5932 34.6667Z" fill="white"/>
</svg>
