<svg width="32" height="32" viewBox="0 0 32 32" fill="none" xmlns="http://www.w3.org/2000/svg">
<path d="M30.1249 15.3747H28.381L31.4509 12.3049C31.8049 11.9506 31.9999 11.4798 31.9999 10.979C31.9999 10.4783 31.8049 10.0073 31.4509 9.6533L28.6664 6.86888C28.4225 6.62498 28.0269 6.62498 27.7826 6.86888C27.4287 7.22313 26.9577 7.41819 26.457 7.41819C25.956 7.41819 25.4853 7.22313 25.1311 6.86888C24.7768 6.51488 24.5819 6.04393 24.5819 5.5432C24.5819 5.04223 24.777 4.57152 25.1311 4.21728C25.2482 4.10009 25.3142 3.94115 25.3142 3.77538C25.3142 3.60961 25.2482 3.45067 25.1311 3.33349L22.3469 0.549315C21.9927 0.195067 21.5219 0 21.0209 0C20.5202 0 20.0493 0.195067 19.6953 0.549315L9.37254 10.8718C9.1284 11.1157 9.1284 11.5114 9.37254 11.7555C9.61669 11.9998 10.0124 11.9998 10.2566 11.7555L20.5791 1.4331C20.6973 1.31494 20.8539 1.25 21.0209 1.25C21.188 1.25 21.3449 1.31494 21.4629 1.4331L23.8494 3.81933C23.5127 4.32616 23.332 4.92089 23.332 5.5432C23.332 6.37792 23.6569 7.16258 24.2473 7.75291C24.8376 8.34301 25.6223 8.66819 26.457 8.66819C27.0793 8.66819 27.6738 8.48753 28.1808 8.15087L30.5671 10.5371C30.8107 10.7807 30.8107 11.1772 30.5671 11.4209L26.6133 15.3747H23.8733L25.9267 13.3213C26.1706 13.0771 26.1706 12.6814 25.9267 12.4375L19.5627 6.07347C19.3185 5.82934 18.9229 5.82934 18.6786 6.07347L9.37743 15.3747H1.87499C0.841063 15.3747 0 16.2158 0 17.2497V21.1872C0 21.5322 0.279785 21.8122 0.624999 21.8122C1.65894 21.8122 2.5 22.6533 2.5 23.6872C2.5 24.7209 1.65894 25.5622 0.624999 25.5622C0.279785 25.5622 0 25.8419 0 26.1872V30.1247C0 31.1584 0.841063 31.9997 1.87499 31.9997H30.1249C31.1589 31.9997 31.9999 31.1584 31.9999 30.1247V26.1872C31.9999 25.8419 31.7201 25.5622 31.375 25.5622C30.341 25.5622 29.5 24.7209 29.5 23.6872C29.5 22.6533 30.341 21.8122 31.375 21.8122C31.7201 21.8122 31.9999 21.5322 31.9999 21.1872V17.2497C31.9999 16.2158 31.1589 15.3747 30.1249 15.3747ZM19.1206 7.39915L24.6008 12.8793L22.1054 15.3747H19.6306L21.4629 13.5422C21.707 13.2983 21.707 12.9025 21.4629 12.6584C21.219 12.4143 20.8232 12.4143 20.5791 12.6584L17.8627 15.3745H11.1452L19.1206 7.39915ZM30.7499 20.6249C29.3254 20.9152 28.2499 22.1779 28.2499 23.6872C28.2499 25.1962 29.3254 26.459 30.7499 26.7495V30.1247C30.7499 30.4691 30.4697 30.7497 30.1249 30.7497H1.87499C1.53027 30.7497 1.25 30.4691 1.25 30.1247V26.7495C2.67456 26.459 3.74999 25.1962 3.74999 23.6872C3.74999 22.1779 2.67456 20.9155 1.25 20.6249V17.2497C1.25 16.905 1.53027 16.6247 1.87499 16.6247H30.1249C30.4697 16.6247 30.7499 16.905 30.7499 17.2497V20.6249Z" fill="#59A4F2"/>
</svg>
