<svg width="40" height="40" viewBox="0 0 40 40" fill="none" xmlns="http://www.w3.org/2000/svg">
<path d="M25.625 6.26874V6.91249C25.3937 7.26249 25.175 7.49999 25 7.49999C24.375 7.49999 22.5 9.37499 21.875 9.37499C21.2307 9.49044 20.6002 9.67268 19.9937 9.91874C19.974 9.43633 19.7685 8.98024 19.4202 8.6459C19.0719 8.31157 18.6078 8.12491 18.125 8.12499H14.1375L12.525 4.63749C14.68 3.84306 16.9941 3.5766 19.2733 3.86041C21.5525 4.14423 23.7305 4.97006 25.625 6.26874Z" fill="#59A4F2"/>
<path d="M26.25 13.125L29.1875 9.76248L29.1937 9.75623C30.4452 11.5033 31.2888 13.5087 31.6625 15.625H25.625V13.3062L26.25 13.125Z" fill="#59A4F2"/>
<path d="M16.875 15.625L21.875 14.375L25.625 13.3063V15.625H21.25C20.9188 15.626 20.6014 15.758 20.3672 15.9922C20.133 16.2264 20.001 16.5438 20 16.875V30L18.125 26.25L16.875 24.375L15 21.875L15.625 18.75L16.875 15.625Z" fill="#59A4F2"/>
<path d="M13.7501 16.875C13.7501 16.875 12.5001 18.125 12.5001 18.75C12.5001 19.375 11.8751 21.25 12.5001 21.875C13.1251 22.5 13.7501 25.625 13.7501 25.625L13.1251 28.75L11.5001 31.1875C8.41024 29.7702 5.92323 27.3029 4.48129 24.2245C3.03936 21.1461 2.73596 17.6561 3.62506 14.375H4.37506L5.18131 11.875H8.75006V18.125H11.2501L12.3438 15.75L13.7501 16.875Z" fill="#59A4F2"/>
<path d="M23.75 21.5937L22.4938 22.85L23.75 24.1062L25.5875 25.9437L27.5 24.0312L30.0062 21.525L27.5 19.0188L26.9125 18.4312L23.75 21.5937ZM31.6625 15.625H36.875C37.2062 15.626 37.5236 15.758 37.7578 15.9922C37.992 16.2264 38.124 16.5438 38.125 16.875V35C38.124 35.3312 37.992 35.6486 37.7578 35.8828C37.5236 36.117 37.2062 36.249 36.875 36.25H21.25C20.9188 36.249 20.6014 36.117 20.3672 35.8828C20.133 35.6486 20.001 35.3312 20 35V16.875C20.001 16.5438 20.133 16.2264 20.3672 15.9922C20.6014 15.758 20.9188 15.626 21.25 15.625H31.6625ZM31.25 26.025L30.575 25.8C30.4654 25.7644 30.3481 25.7598 30.236 25.7867C30.1239 25.8136 30.0215 25.871 29.94 25.9525C29.8585 26.034 29.8011 26.1364 29.7742 26.2485C29.7473 26.3606 29.7519 26.4779 29.7875 26.5875L31.25 30.9812L31.2812 31.075C31.3159 31.1756 31.3755 31.2658 31.4545 31.3371C31.5334 31.4085 31.6292 31.4587 31.7328 31.483C31.8364 31.5073 31.9444 31.505 32.0469 31.4763C32.1494 31.4476 32.2429 31.3934 32.3187 31.3188L35 28.6375L35.3063 28.3313C35.3822 28.256 35.4376 28.1625 35.4671 28.0597C35.4967 27.957 35.4993 27.8483 35.4749 27.7443C35.4504 27.6402 35.3997 27.5441 35.3275 27.4652C35.2553 27.3863 35.164 27.3273 35.0625 27.2937L35 27.275L31.25 26.025Z" fill="#59A4F2"/>
<path d="M36.875 15H33.75V4.375C33.75 3.5462 33.4208 2.75134 32.8347 2.16529C32.2487 1.57924 31.4538 1.25 30.625 1.25H28.125C27.2962 1.25 26.5013 1.57924 25.9153 2.16529C25.3292 2.75134 25 3.5462 25 4.375V5.1375C23.181 4.08117 21.1588 3.42247 19.0666 3.20485C16.9745 2.98723 14.8599 3.21564 12.8625 3.875L11.8188 1.6125C11.7676 1.50476 11.6871 1.41361 11.5865 1.3495C11.4859 1.28539 11.3693 1.2509 11.25 1.25H8.75C8.58424 1.25 8.42527 1.31585 8.30806 1.43306C8.19085 1.55027 8.125 1.70924 8.125 1.875V6.43125C7.70531 6.76241 7.30663 7.11935 6.93125 7.5H5.63125L4.96875 5.43125C4.92789 5.30594 4.84847 5.19676 4.74183 5.11931C4.63519 5.04186 4.5068 5.0001 4.375 5H1.875C1.70924 5 1.55027 5.06585 1.43306 5.18306C1.31585 5.30027 1.25 5.45924 1.25 5.625V14.375C1.25 14.5408 1.31585 14.6997 1.43306 14.8169C1.55027 14.9342 1.70924 15 1.875 15H2.8375C2.61246 16.0264 2.4993 17.0742 2.5 18.125C2.50529 22.1016 4.08734 25.9139 6.89924 28.7258C9.71114 31.5377 13.5234 33.1197 17.5 33.125C18.1272 33.1219 18.7535 33.0781 19.375 32.9938V35C19.3765 35.4968 19.5745 35.9729 19.9258 36.3242C20.2771 36.6755 20.7532 36.8735 21.25 36.875H21.3375C21.474 37.4113 21.7852 37.8868 22.2221 38.2265C22.659 38.5661 23.1966 38.7505 23.75 38.7505C24.3034 38.7505 24.841 38.5661 25.2779 38.2265C25.7148 37.8868 26.026 37.4113 26.1625 36.875H31.9625C32.099 37.4113 32.4102 37.8868 32.8471 38.2265C33.284 38.5661 33.8216 38.7505 34.375 38.7505C34.9284 38.7505 35.466 38.5661 35.9029 38.2265C36.3398 37.8868 36.651 37.4113 36.7875 36.875H36.875C37.3718 36.8735 37.8479 36.6755 38.1992 36.3242C38.5505 35.9729 38.7485 35.4968 38.75 35V16.875C38.7485 16.3782 38.5505 15.9021 38.1992 15.5508C37.8479 15.1995 37.3718 15.0015 36.875 15ZM26.25 4.375C26.2515 3.87818 26.4495 3.40212 26.8008 3.05081C27.1521 2.6995 27.6282 2.50148 28.125 2.5H30.625C31.1218 2.50148 31.5979 2.6995 31.9492 3.05081C32.3005 3.40212 32.4985 3.87818 32.5 4.375V15H32.175C31.3837 11.3559 29.2735 8.13273 26.25 5.95V4.375ZM26.25 7.53125C27.0394 8.18606 27.7541 8.92595 28.3813 9.7375L26.25 12.175V7.53125ZM26.25 13.775L26.4188 13.725C26.5353 13.694 26.6398 13.6286 26.7188 13.5375L29.1187 10.7875C29.9372 12.0835 30.5329 13.5073 30.8813 15H26.25V13.775ZM17.5 4.375C20.1651 4.37078 22.7728 5.14875 25 6.6125V6.71875C24.9375 6.8 24.8875 6.85625 24.8625 6.8875C24.1909 7.097 23.5755 7.45599 23.0625 7.9375C22.6899 8.24081 22.2927 8.51258 21.875 8.75C21.3858 8.79842 20.906 8.91627 20.45 9.1C20.2687 8.63016 19.9497 8.22603 19.5349 7.94053C19.12 7.65504 18.6286 7.50149 18.125 7.5H14.5312L13.3875 5.01875C14.7172 4.59438 16.1043 4.37725 17.5 4.375ZM2.5 13.75V6.25H3.91875L4.58125 8.31875C4.62344 8.44445 4.70406 8.55371 4.81173 8.6311C4.9194 8.70849 5.04866 8.75008 5.18125 8.75H8.75C8.91576 8.75 9.07473 8.68415 9.19194 8.56694C9.30915 8.44973 9.375 8.29076 9.375 8.125V2.5H10.85L13.5687 8.3875C13.619 8.49599 13.6992 8.5878 13.8 8.65205C13.9008 8.7163 14.018 8.7503 14.1375 8.75H18.125C18.4565 8.75 18.7745 8.8817 19.0089 9.11612C19.2433 9.35054 19.375 9.66848 19.375 10C19.375 10.3315 19.2433 10.6495 19.0089 10.8839C18.7745 11.1183 18.4565 11.25 18.125 11.25H14.1375C14.018 11.2497 13.9008 11.2837 13.8 11.3479C13.6992 11.4122 13.619 11.504 13.5687 11.6125L10.85 17.5H9.375V11.875C9.375 11.7092 9.30915 11.5503 9.19194 11.4331C9.07473 11.3158 8.91576 11.25 8.75 11.25H5.18125C5.04866 11.2499 4.9194 11.2915 4.81173 11.3689C4.70406 11.4463 4.62344 11.5555 4.58125 11.6813L3.91875 13.75H2.5ZM3.75 18.125C3.75321 17.0727 3.87694 16.0242 4.11875 15H4.375C4.5068 14.9999 4.63519 14.9581 4.74183 14.8807C4.84847 14.8032 4.92789 14.6941 4.96875 14.5687L5.63125 12.5H8.125V18.125C8.125 18.2908 8.19085 18.4497 8.30806 18.5669C8.42527 18.6842 8.58424 18.75 8.75 18.75H11.25C11.3693 18.7491 11.4859 18.7146 11.5865 18.6505C11.6871 18.5864 11.7676 18.4952 11.8188 18.3875L12.5812 16.7375L12.8313 16.9438C12.3357 17.4342 12.002 18.0645 11.875 18.75C11.8555 18.9703 11.8242 19.1893 11.7812 19.4062C11.6 20.4 11.375 21.6375 12.0563 22.3187C12.3438 22.6 12.825 24.2313 13.1125 25.625L12.5375 28.5063L11.2875 30.3813C9.02176 29.2337 7.11811 27.4811 5.78764 25.3177C4.45718 23.1544 3.7519 20.6648 3.75 18.125ZM19.375 31.7375C18.7536 31.8239 18.1273 31.8699 17.5 31.875C15.7663 31.8767 14.0481 31.5479 12.4375 30.9062L13.6438 29.0938C13.6901 29.0283 13.7221 28.9537 13.7375 28.875L14.3625 25.75C14.3813 25.6677 14.3813 25.5823 14.3625 25.5C14.2062 24.725 13.6437 22.1375 12.9437 21.4313C12.725 21.2125 12.9312 20.0625 13.0062 19.625C13.0706 19.3415 13.1103 19.0529 13.125 18.7625C13.3825 18.2155 13.7458 17.7248 14.1937 17.3187C14.2554 17.2553 14.3033 17.1798 14.3345 17.097C14.3656 17.0142 14.3794 16.9259 14.375 16.8375C14.3694 16.75 14.3454 16.6646 14.3044 16.5871C14.2635 16.5095 14.2066 16.4415 14.1375 16.3875L13.1187 15.5688L14.5312 12.5H18.125C18.7217 12.4986 19.2981 12.2835 19.7499 11.8936C20.2016 11.5038 20.4988 10.9651 20.5875 10.375C21.004 10.21 21.435 10.0844 21.875 10C22.3687 10 22.9062 9.61875 23.8125 8.9375C24.1851 8.63419 24.5823 8.36242 25 8.125V12.8313L21.725 13.7688L16.725 15.0188C16.6288 15.0431 16.5396 15.0897 16.4647 15.1548C16.3897 15.22 16.3312 15.3018 16.2937 15.3937L15.0437 18.5187C15.0305 18.5533 15.02 18.5888 15.0125 18.625L14.3875 21.75C14.3699 21.8366 14.3708 21.9259 14.3901 22.0121C14.4095 22.0982 14.447 22.1793 14.5 22.25L16.3562 24.7188L17.5812 26.5625L19.375 30.15V31.7375ZM25 14.1313V15H21.95L22.0438 14.975L25 14.1313ZM19.375 16.875V27.35L18.6812 25.9688C18.6711 25.9466 18.6585 25.9256 18.6437 25.9062L17.375 24L15.6687 21.725L16.225 18.9313L17.3375 16.1562L20 15.4875C19.8042 15.6619 19.6473 15.8756 19.5397 16.1147C19.432 16.3537 19.3759 16.6128 19.375 16.875ZM23.75 37.5C23.5319 37.4987 23.3179 37.4403 23.1293 37.3307C22.9407 37.221 22.7841 37.0639 22.675 36.875H24.825C24.7159 37.0639 24.5593 37.221 24.3707 37.3307C24.1821 37.4403 23.9681 37.4987 23.75 37.5ZM34.375 37.5C34.1556 37.5008 33.9399 37.4434 33.7499 37.3336C33.56 37.2238 33.4026 37.0655 33.2938 36.875H35.4562C35.3474 37.0655 35.19 37.2238 35.0001 37.3336C34.8101 37.4434 34.5944 37.5008 34.375 37.5ZM37.5 35C37.5 35.1658 37.4342 35.3247 37.3169 35.4419C37.1997 35.5592 37.0408 35.625 36.875 35.625H21.25C21.0842 35.625 20.9253 35.5592 20.8081 35.4419C20.6908 35.3247 20.625 35.1658 20.625 35V16.875C20.625 16.7092 20.6908 16.5503 20.8081 16.4331C20.9253 16.3158 21.0842 16.25 21.25 16.25H36.875C37.0408 16.25 37.1997 16.3158 37.3169 16.4331C37.4342 16.5503 37.5 16.7092 37.5 16.875V35Z" fill="white"/>
<path d="M35.6249 26.9044V18.75H34.3749V26.4056L31.8749 25.5725V18.75H30.6249V21.4919C30.6189 21.3382 30.5559 21.1922 30.4481 21.0825L28.1249 18.7594V18.75H28.1156L27.3549 17.9888C27.2355 17.8758 27.0774 17.8129 26.9131 17.8129C26.7487 17.8129 26.5906 17.8758 26.4712 17.9888L24.3749 20.085V18.75H23.1249V21.335L22.0518 22.4088C21.9347 22.526 21.8688 22.6849 21.8688 22.8506C21.8688 23.0164 21.9347 23.1753 22.0518 23.2925L23.1249 24.3656V33.125H24.3749V25.6156L25.1449 26.3862C25.2622 26.5034 25.4211 26.5692 25.5868 26.5692C25.7525 26.5692 25.9115 26.5034 26.0287 26.3862L26.8749 25.54V33.125H28.1249V24.29L30.4481 21.9663C30.556 21.8568 30.6191 21.7111 30.6249 21.5575V25.1781C30.411 25.1323 30.1886 25.1441 29.9807 25.2122C29.7727 25.2803 29.5865 25.4023 29.4411 25.5658C29.2957 25.7294 29.1962 25.9285 29.1529 26.143C29.1095 26.3575 29.1238 26.5797 29.1943 26.7869L30.6249 31.0788V33.125H31.8749V32.125H31.8787C32.0423 32.125 32.2043 32.0927 32.3553 32.0298C32.5063 31.967 32.6434 31.8748 32.7587 31.7587L34.3749 30.1431V33.125H35.6249V28.8931L35.7499 28.7681C35.8759 28.6433 35.9736 28.4929 36.0363 28.327C36.0991 28.1611 36.1254 27.9837 36.1135 27.8068C36.1017 27.6298 36.0519 27.4575 35.9676 27.3015C35.8833 27.1455 35.7664 27.0094 35.6249 26.9025V26.9044ZM25.5868 25.0625L23.375 22.8506L26.9131 19.3125L29.1249 21.5244L25.5868 25.0625ZM31.8749 30.875L30.3806 26.3919L34.8662 27.8837L31.8749 30.875Z" fill="white"/>
</svg>
